<?xml version="1.0" encoding="UTF-8" standalone="no"?>
<!-- Created with Inkscape (http://www.inkscape.org/) -->

<svg
   version="1.1"
   id="svg1"
   width="458.21692"
   height="222.90399"
   viewBox="0 0 458.21691 222.90399"
   xmlns="http://www.w3.org/2000/svg"
   xmlns:svg="http://www.w3.org/2000/svg">
  <defs
     id="defs1">
    <clipPath
       clipPathUnits="userSpaceOnUse"
       id="clipPath80">
      <path
         d="M 0,595.276 H 841.89 V 0 H 0 Z"
         transform="translate(-505.14654,-357.47621)"
         id="path80" />
    </clipPath>
    <clipPath
       clipPathUnits="userSpaceOnUse"
       id="clipPath82">
      <path
         d="M 0,595.276 H 841.89 V 0 H 0 Z"
         id="path82" />
    </clipPath>
    <clipPath
       clipPathUnits="userSpaceOnUse"
       id="clipPath84">
      <path
         d="M 0,595.276 H 841.89 V 0 H 0 Z"
         transform="translate(-189.3543,-308.19581)"
         id="path84" />
    </clipPath>
    <clipPath
       clipPathUnits="userSpaceOnUse"
       id="clipPath86">
      <path
         d="M 0,595.276 H 841.89 V 0 H 0 Z"
         transform="translate(-419.86884,-357.47621)"
         id="path86" />
    </clipPath>
    <clipPath
       clipPathUnits="userSpaceOnUse"
       id="clipPath88">
      <path
         d="M 0,595.276 H 841.89 V 0 H 0 Z"
         transform="translate(-246.03661,-381.22651)"
         id="path88" />
    </clipPath>
  </defs>
  <g
     id="layer-MC0"
     transform="translate(-1394.9924,-285.39868)">
    <path
       id="path49"
       d="M 503.482,214.049 H 447.74 v 2.665 h 55.742 z"
       style="fill:#302c30;fill-opacity:1;fill-rule:nonzero;stroke:none"
       transform="matrix(1.3333333,0,0,-1.3333333,1142.52,793.70133)" />
    <path
       id="path79"
       d="M 0,0 C 6.558,0 11.875,5.317 11.875,11.876 11.875,18.434 6.558,23.75 0,23.75 -6.559,23.75 -11.875,18.434 -11.875,11.876 -11.875,5.317 -6.559,0 0,0"
       style="fill:#302c30;fill-opacity:1;fill-rule:nonzero;stroke:none"
       transform="matrix(1.3333333,0,0,-1.3333333,1816.0487,317.0664)"
       clip-path="url(#clipPath80)" />
    <path
       id="path81"
       d="m 506.422,281.092 h -2.552 v 48.519 h 2.552 z m -29.147,63.62 -29.535,-36.516 v 36.515 h -55.742 l -29.536,-36.515 v 73.031 H 306.72 L 277.184,344.711 V 229.478 h 55.742 l 29.536,36.515 v -36.515 h 55.742 l 29.535,36.515 v -36.515 h 55.743 l 29.535,36.516 v 78.718 z"
       style="fill:#302c30;fill-opacity:1;fill-rule:nonzero;stroke:none"
       transform="matrix(1.3333333,0,0,-1.3333333,1142.52,793.70133)"
       clip-path="url(#clipPath82)" />
    <path
       id="path83"
       d="m 0,0 v -78.717 h 55.742 l 29.536,36.515 V -4.119 H 36.755 v 2.552 H 85.278 V 36.516 H 29.536 Z"
       style="fill:#302c30;fill-opacity:1;fill-rule:nonzero;stroke:none"
       transform="matrix(1.3333333,0,0,-1.3333333,1394.9924,382.7736)"
       clip-path="url(#clipPath84)" />
    <path
       id="path85"
       d="M 0,0 C 6.558,0 11.875,5.317 11.875,11.876 11.875,18.434 6.558,23.75 0,23.75 -6.559,23.75 -11.875,18.434 -11.875,11.876 -11.875,5.317 -6.559,0 0,0"
       style="fill:#302c30;fill-opacity:1;fill-rule:nonzero;stroke:none"
       transform="matrix(1.3333333,0,0,-1.3333333,1702.3451,317.0664)"
       clip-path="url(#clipPath86)" />
    <path
       id="path87"
       d="m 0,0 c -6.558,0 -11.875,-5.317 -11.875,-11.875 0,-6.559 5.317,-11.875 11.875,-11.875 6.558,0 11.875,5.316 11.875,11.875 C 11.875,-5.317 6.558,0 0,0 m 0,-2.082 c 5.4,0 9.793,-4.393 9.793,-9.793 0,-5.4 -4.393,-9.793 -9.793,-9.793 -5.4,0 -9.793,4.393 -9.793,9.793 0,5.4 4.393,9.793 9.793,9.793"
       style="fill:#302c30;fill-opacity:1;fill-rule:nonzero;stroke:none"
       transform="matrix(1.3333333,0,0,-1.3333333,1470.5688,285.39933)"
       clip-path="url(#clipPath88)" />
  </g>
</svg>
