<?xml version="1.0" encoding="UTF-8" standalone="no"?>
<!-- Created with Inkscape (http://www.inkscape.org/) -->

<svg
   version="1.1"
   id="svg1"
   width="617.57428"
   height="222.90399"
   viewBox="0 0 617.57427 222.90399"
   xmlns="http://www.w3.org/2000/svg"
   xmlns:svg="http://www.w3.org/2000/svg">
  <defs
     id="defs1">
    <clipPath
       clipPathUnits="userSpaceOnUse"
       id="clipPath8">
      <path
         d="M 0,595.276 H 841.89 V 0 H 0 Z"
         transform="translate(-561.75421,-265.15471)"
         id="path8" />
    </clipPath>
    <clipPath
       clipPathUnits="userSpaceOnUse"
       id="clipPath10">
      <path
         d="M 0,595.276 H 841.89 V 0 H 0 Z"
         transform="translate(-582.10211,-260.99581)"
         id="path10" />
    </clipPath>
    <clipPath
       clipPathUnits="userSpaceOnUse"
       id="clipPath12">
      <path
         d="M 0,595.276 H 841.89 V 0 H 0 Z"
         transform="translate(-598.69331,-261.66421)"
         id="path12" />
    </clipPath>
    <clipPath
       clipPathUnits="userSpaceOnUse"
       id="clipPath14">
      <path
         d="M 0,595.276 H 841.89 V 0 H 0 Z"
         id="path14" />
    </clipPath>
    <clipPath
       clipPathUnits="userSpaceOnUse"
       id="clipPath16">
      <path
         d="M 0,595.276 H 841.89 V 0 H 0 Z"
         transform="translate(-624.77512,-262.58501)"
         id="path16" />
    </clipPath>
    <clipPath
       clipPathUnits="userSpaceOnUse"
       id="clipPath18">
      <path
         d="M 0,595.276 H 841.89 V 0 H 0 Z"
         transform="translate(-646.53502,-259.48081)"
         id="path18" />
    </clipPath>
    <clipPath
       clipPathUnits="userSpaceOnUse"
       id="clipPath20">
      <path
         d="M 0,595.276 H 841.89 V 0 H 0 Z"
         transform="translate(-558.29332,-232.18081)"
         id="path20" />
    </clipPath>
    <clipPath
       clipPathUnits="userSpaceOnUse"
       id="clipPath22">
      <path
         d="M 0,595.276 H 841.89 V 0 H 0 Z"
         transform="translate(-587.19731,-232.44821)"
         id="path22" />
    </clipPath>
    <clipPath
       clipPathUnits="userSpaceOnUse"
       id="clipPath24">
      <path
         d="M 0,595.276 H 841.89 V 0 H 0 Z"
         transform="translate(-607.47172,-237.64681)"
         id="path24" />
    </clipPath>
    <clipPath
       clipPathUnits="userSpaceOnUse"
       id="clipPath26">
      <path
         d="M 0,595.276 H 841.89 V 0 H 0 Z"
         id="path26" />
    </clipPath>
    <clipPath
       clipPathUnits="userSpaceOnUse"
       id="clipPath28">
      <path
         d="M 0,595.276 H 841.89 V 0 H 0 Z"
         transform="translate(-621.40391,-250.65811)"
         id="path28" />
    </clipPath>
    <clipPath
       clipPathUnits="userSpaceOnUse"
       id="clipPath30">
      <path
         d="M 0,595.276 H 841.89 V 0 H 0 Z"
         transform="translate(-649.68401,-235.53781)"
         id="path30" />
    </clipPath>
    <clipPath
       clipPathUnits="userSpaceOnUse"
       id="clipPath32">
      <path
         d="M 0,595.276 H 841.89 V 0 H 0 Z"
         transform="translate(-505.14652,-357.47621)"
         id="path32" />
    </clipPath>
    <clipPath
       clipPathUnits="userSpaceOnUse"
       id="clipPath34">
      <path
         d="M 0,595.276 H 841.89 V 0 H 0 Z"
         id="path34" />
    </clipPath>
    <clipPath
       clipPathUnits="userSpaceOnUse"
       id="clipPath36">
      <path
         d="M 0,595.276 H 841.89 V 0 H 0 Z"
         transform="translate(-189.3543,-308.19581)"
         id="path36" />
    </clipPath>
    <clipPath
       clipPathUnits="userSpaceOnUse"
       id="clipPath38">
      <path
         d="M 0,595.276 H 841.89 V 0 H 0 Z"
         transform="translate(-419.86881,-357.47621)"
         id="path38" />
    </clipPath>
    <clipPath
       clipPathUnits="userSpaceOnUse"
       id="clipPath40">
      <path
         d="M 0,595.276 H 841.89 V 0 H 0 Z"
         transform="translate(-246.03661,-381.22651)"
         id="path40" />
    </clipPath>
  </defs>
  <g
     id="layer-MC0"
     transform="translate(-252.47234,-285.39868)">
    <path
       id="path1"
       d="M 503.482,214.049 H 447.74 v 2.665 h 55.742 z"
       style="fill:#f7f2ee;fill-opacity:1;fill-rule:nonzero;stroke:none"
       transform="matrix(1.3333333,0,0,-1.3333333,0,793.70133)" />
    <path
       id="path2"
       d="M 0,0 H 9.112 V 4.022 H 0 v 6.335 h 12.279 v 4.058 H -4.948 V -10.5 H 0 Z"
       style="fill:#f7f2ee;fill-opacity:1;fill-rule:nonzero;stroke:none"
       transform="matrix(1.3333333,0,0,-1.3333333,737.51027,394.60907)" />
    <path
       id="path3"
       d="m 574.381,313.734 h -4.948 v -24.915 h 4.948 z"
       style="fill:#f7f2ee;fill-opacity:1;fill-rule:nonzero;stroke:none"
       transform="matrix(1.3333333,0,0,-1.3333333,0,793.70133)" />
    <path
       id="path4"
       d="m 0,0 -0.105,2.158 10.213,-19.1 h 5.588 V 7.973 H 11.39 V -7.759 L 11.448,-9.733 1.886,7.973 H -4.343 V -16.942 H 0 Z"
       style="fill:#f7f2ee;fill-opacity:1;fill-rule:nonzero;stroke:none"
       transform="matrix(1.3333333,0,0,-1.3333333,776.56693,386.01947)" />
    <path
       id="path5"
       d="m 0,0 3.525,-10.625 h -7.083 z m -4.81,-14.362 h 9.575 l 1.984,-5.98 h 4.947 L 3.047,4.573 h -5.375 l -8.72,-24.915 h 4.236 z"
       style="fill:#f7f2ee;fill-opacity:1;fill-rule:nonzero;stroke:none"
       transform="matrix(1.3333333,0,0,-1.3333333,813.744,381.48627)" />
    <path
       id="path6"
       d="m 0,0 3.525,-10.625 h -7.083 z m -4.81,-14.362 h 9.575 l 1.984,-5.98 h 4.947 L 3.047,4.573 h -5.375 l -8.72,-24.915 h 4.236 z"
       style="fill:#f7f2ee;fill-opacity:1;fill-rule:nonzero;stroke:none"
       transform="matrix(1.3333333,0,0,-1.3333333,846.4412,381.48627)" />
    <path
       id="path7"
       d="m 0,0 c -0.674,-1.347 -1.683,-2.387 -3.03,-3.119 -1.347,-0.733 -2.981,-1.099 -4.902,-1.099 h -3.773 v 17.883 h 3.743 c 1.981,0 3.634,-0.352 4.962,-1.055 1.326,-0.703 2.326,-1.718 3,-3.045 C 0.673,8.238 1.01,6.644 1.01,4.783 1.01,2.941 0.673,1.346 0,0 m -1.961,13.873 c -1.585,0.831 -3.505,1.247 -5.763,1.247 h -5.762 V -5.674 h 0.772 1.009 3.892 c 2.218,0 4.129,0.436 5.734,1.307 1.603,0.872 2.826,2.104 3.668,3.699 0.842,1.593 1.262,3.42 1.262,5.48 0,2.119 -0.406,3.951 -1.217,5.496 -0.813,1.545 -2.011,2.733 -3.595,3.565"
       style="fill:#f7f2ee;fill-opacity:1;fill-rule:nonzero;stroke:none"
       transform="matrix(1.3333333,0,0,-1.3333333,749.0056,440.16173)"
       clip-path="url(#clipPath8)" />
    <path
       id="path9"
       d="m 0,0 h -12.15 v 8.466 h 9.744 v 1.485 h -9.744 v 7.843 h 11.883 v 1.485 H -13.932 V -1.515 H 0 Z"
       style="fill:#f7f2ee;fill-opacity:1;fill-rule:nonzero;stroke:none"
       transform="matrix(1.3333333,0,0,-1.3333333,776.13613,445.70693)"
       clip-path="url(#clipPath10)" />
    <path
       id="path11"
       d="m 0,0 c 0.604,0.861 0.906,1.876 0.906,3.045 0,1.148 -0.213,2.119 -0.639,2.911 -0.426,0.792 -1.149,1.456 -2.168,1.99 -1.02,0.535 -2.402,0.97 -4.144,1.307 -1.545,0.258 -2.733,0.58 -3.565,0.966 -0.832,0.386 -1.416,0.856 -1.753,1.411 -0.337,0.554 -0.505,1.257 -0.505,2.109 0,0.772 0.203,1.46 0.609,2.065 0.406,0.604 1.005,1.064 1.798,1.381 0.792,0.316 1.752,0.475 2.881,0.475 1.604,0 2.886,-0.356 3.847,-1.069 0.96,-0.713 1.619,-1.822 1.975,-3.327 l 1.516,0.416 c -0.456,1.861 -1.293,3.227 -2.511,4.099 -1.217,0.871 -2.817,1.307 -4.797,1.307 -1.407,0 -2.644,-0.228 -3.713,-0.683 -1.07,-0.456 -1.887,-1.104 -2.451,-1.946 -0.564,-0.842 -0.847,-1.807 -0.847,-2.896 0,-1.11 0.194,-2.03 0.58,-2.763 0.386,-0.733 1.054,-1.342 2.005,-1.827 0.95,-0.485 2.267,-0.866 3.951,-1.144 1.584,-0.297 2.831,-0.653 3.743,-1.069 0.91,-0.416 1.549,-0.931 1.915,-1.544 0.367,-0.615 0.55,-1.367 0.55,-2.258 0,-0.892 -0.208,-1.654 -0.624,-2.288 -0.416,-0.634 -1.044,-1.113 -1.886,-1.44 -0.842,-0.327 -1.867,-0.491 -3.074,-0.491 -1.724,0 -3.095,0.376 -4.115,1.129 -1.02,0.753 -1.738,1.921 -2.154,3.506 l -1.544,-0.446 c 0.475,-1.901 1.356,-3.308 2.643,-4.218 1.288,-0.911 3.001,-1.367 5.14,-1.367 1.485,0 2.777,0.228 3.877,0.684 C -1.456,-1.52 -0.605,-0.861 0,0"
       style="fill:#f7f2ee;fill-opacity:1;fill-rule:nonzero;stroke:none"
       transform="matrix(1.3333333,0,0,-1.3333333,798.25773,444.81573)"
       clip-path="url(#clipPath12)" />
    <path
       id="path13"
       d="m 603.343,259.481 h 1.782 v 20.794 h -1.782 z"
       style="fill:#f7f2ee;fill-opacity:1;fill-rule:nonzero;stroke:none"
       transform="matrix(1.3333333,0,0,-1.3333333,0,793.70133)"
       clip-path="url(#clipPath14)" />
    <path
       id="path15"
       d="M 0,0 C 0.227,0.399 0.409,0.839 0.569,1.297 L 0.995,-3.104 H 1.946 V 6.936 H -6.461 V 5.481 H 0.193 V 5.184 C 0.173,3.679 -0.134,2.362 -0.728,1.233 c -0.594,-1.129 -1.411,-1.981 -2.45,-2.555 -1.04,-0.574 -2.214,-0.861 -3.52,-0.861 -1.506,0 -2.808,0.366 -3.907,1.099 -1.099,0.732 -1.936,1.812 -2.51,3.238 -0.575,1.426 -0.861,3.109 -0.861,5.05 0,1.941 0.312,3.634 0.935,5.08 0.624,1.445 1.495,2.544 2.614,3.297 1.119,0.752 2.431,1.129 3.937,1.129 1.663,0 3.039,-0.416 4.129,-1.248 1.088,-0.832 1.91,-2.139 2.465,-3.921 l 1.515,0.624 c -0.614,2.02 -1.604,3.524 -2.971,4.515 -1.366,0.99 -3.07,1.485 -5.109,1.485 -1.822,0 -3.441,-0.456 -4.857,-1.366 -1.416,-0.911 -2.525,-2.199 -3.327,-3.862 -0.802,-1.664 -1.203,-3.585 -1.203,-5.763 0,-2.198 0.361,-4.114 1.084,-5.748 0.723,-1.634 1.753,-2.887 3.089,-3.758 1.338,-0.871 2.907,-1.307 4.709,-1.307 1.604,0 2.995,0.307 4.174,0.921 C -1.614,-2.104 -0.683,-1.198 0,0"
       style="fill:#f7f2ee;fill-opacity:1;fill-rule:nonzero;stroke:none"
       transform="matrix(1.3333333,0,0,-1.3333333,833.03347,443.588)"
       clip-path="url(#clipPath16)" />
    <path
       id="path17"
       d="M 0,0 V 20.794 H -1.723 V 3.446 L -1.681,2.57 -12.982,20.794 h -2.287 V 0 h 1.664 V 17.853 L -13.653,18.765 -2.05,0 Z"
       style="fill:#f7f2ee;fill-opacity:1;fill-rule:nonzero;stroke:none"
       transform="matrix(1.3333333,0,0,-1.3333333,862.04667,447.72693)"
       clip-path="url(#clipPath18)" />
    <path
       id="path19"
       d="m 0,0 c -1.258,-0.733 -2.758,-1.099 -4.501,-1.099 -1.089,0 -2.034,0.178 -2.836,0.535 -0.803,0.356 -1.412,0.876 -1.827,1.559 -0.416,0.683 -0.624,1.52 -0.624,2.51 0,0.832 0.183,1.58 0.55,2.243 0.366,0.664 0.935,1.273 1.708,1.827 0.447,0.321 0.961,0.605 1.528,0.86 0.149,-0.173 0.298,-0.347 0.462,-0.533 L 0.609,0.921 C 0.703,0.811 0.795,0.711 0.889,0.606 0.61,0.385 0.314,0.183 0,0 m -5.778,10.813 c -0.554,0.673 -0.941,1.233 -1.158,1.679 -0.219,0.445 -0.327,0.965 -0.327,1.559 0,0.97 0.312,1.748 0.936,2.332 0.624,0.584 1.47,0.876 2.54,0.876 0.91,0 1.638,-0.257 2.183,-0.772 0.544,-0.515 0.817,-1.228 0.817,-2.139 0,-0.852 -0.258,-1.589 -0.773,-2.213 -0.514,-0.624 -1.376,-1.154 -2.584,-1.589 -0.238,-0.1 -0.505,-0.208 -0.802,-0.327 -0.113,-0.035 -0.216,-0.076 -0.326,-0.113 -0.183,0.24 -0.352,0.476 -0.506,0.707 M 6.58,-0.861 c -0.594,0 -1.154,0.104 -1.678,0.312 -0.525,0.208 -1.05,0.534 -1.575,0.98 C 3.226,0.517 3.12,0.614 3.015,0.711 3.47,1.24 3.886,1.809 4.233,2.451 5.085,4.025 5.51,5.832 5.51,7.872 L 3.936,7.902 C 3.936,6.06 3.594,4.466 2.911,3.119 2.655,2.614 2.345,2.166 2.007,1.747 1.87,1.9 1.732,2.059 1.589,2.228 l -6.004,6.799 c 1.163,0.359 2.126,0.785 2.87,1.281 0.802,0.535 1.391,1.139 1.768,1.812 0.376,0.673 0.565,1.436 0.565,2.287 0,1.268 -0.422,2.303 -1.263,3.105 -0.842,0.802 -1.946,1.203 -3.312,1.203 -0.951,0 -1.812,-0.193 -2.585,-0.579 -0.772,-0.386 -1.366,-0.932 -1.782,-1.634 -0.416,-0.703 -0.624,-1.54 -0.624,-2.51 0,-0.713 0.109,-1.377 0.326,-1.991 0.218,-0.614 0.55,-1.213 0.996,-1.797 C -7.293,9.99 -7.094,9.742 -6.879,9.479 -7.472,9.204 -8.016,8.901 -8.511,8.57 c -0.99,-0.664 -1.748,-1.431 -2.272,-2.302 -0.525,-0.871 -0.788,-1.822 -0.788,-2.852 0,-1.287 0.287,-2.376 0.862,-3.267 0.574,-0.891 1.396,-1.57 2.465,-2.035 1.07,-0.465 2.318,-0.698 3.743,-0.698 1.962,0 3.694,0.445 5.199,1.336 0.422,0.25 0.812,0.534 1.183,0.838 0.243,-0.225 0.483,-0.435 0.718,-0.615 0.634,-0.485 1.263,-0.837 1.887,-1.054 0.624,-0.218 1.311,-0.327 2.064,-0.327 0.455,0 0.877,0.045 1.263,0.134 0.386,0.089 0.698,0.222 0.936,0.401 v 1.633 C 8.511,-0.436 8.214,-0.589 7.857,-0.698 7.501,-0.807 7.075,-0.861 6.58,-0.861"
       style="fill:#f7f2ee;fill-opacity:1;fill-rule:nonzero;stroke:none"
       transform="matrix(1.3333333,0,0,-1.3333333,744.39107,484.12693)"
       clip-path="url(#clipPath20)" />
    <path
       id="path21"
       d="m 0,0 c -0.862,-0.733 -2.074,-1.099 -3.639,-1.099 h -6.892 v 8.496 h 7.189 c 1.466,0 2.604,-0.386 3.416,-1.159 C 0.886,5.466 1.292,4.397 1.292,3.03 1.292,1.743 0.862,0.732 0,0 M -0.802,15.685 C 0.039,14.991 0.461,14.051 0.461,12.863 0.461,12.05 0.272,11.338 -0.104,10.724 -0.481,10.11 -1.025,9.64 -1.738,9.313 -2.451,8.986 -3.273,8.823 -4.203,8.823 h -6.328 v 7.901 h 6.12 c 1.564,0 2.767,-0.346 3.609,-1.039 M 0.728,7.62 c -0.58,0.364 -1.254,0.63 -2.022,0.799 0.42,0.139 0.81,0.305 1.16,0.508 0.773,0.445 1.352,1.01 1.738,1.693 0.386,0.683 0.579,1.46 0.579,2.332 0,1.109 -0.252,2.054 -0.757,2.837 -0.505,0.782 -1.238,1.381 -2.198,1.797 -0.961,0.416 -2.124,0.624 -3.491,0.624 h -8.05 V -2.584 h 1.01 0.772 7.041 c 1.307,0 2.455,0.227 3.445,0.683 0.991,0.455 1.758,1.114 2.302,1.975 C 2.802,0.936 3.074,1.931 3.074,3.06 3.074,4.07 2.876,4.961 2.48,5.733 2.084,6.506 1.5,7.134 0.728,7.62"
       style="fill:#f7f2ee;fill-opacity:1;fill-rule:nonzero;stroke:none"
       transform="matrix(1.3333333,0,0,-1.3333333,782.92973,483.7704)"
       clip-path="url(#clipPath22)" />
    <path
       id="path23"
       d="m 0,0 c 0,-1.485 -0.238,-2.743 -0.713,-3.773 -0.475,-1.03 -1.154,-1.797 -2.035,-2.302 -0.882,-0.505 -1.946,-0.757 -3.193,-0.757 -1.248,0 -2.313,0.252 -3.194,0.757 -0.881,0.505 -1.55,1.263 -2.005,2.273 -0.456,1.01 -0.683,2.267 -0.683,3.772 v 13.041 h -1.782 v -13.13 c 0,-1.763 0.297,-3.253 0.891,-4.47 0.594,-1.218 1.46,-2.139 2.599,-2.763 1.139,-0.624 2.47,-0.936 3.996,-0.936 1.584,0 2.955,0.322 4.114,0.966 1.158,0.643 2.054,1.593 2.688,2.851 0.634,1.258 0.951,2.758 0.951,4.501 V 13.011 H 0 Z"
       style="fill:#f7f2ee;fill-opacity:1;fill-rule:nonzero;stroke:none"
       transform="matrix(1.3333333,0,0,-1.3333333,809.96227,476.83893)"
       clip-path="url(#clipPath24)" />
    <path
       id="path25"
       d="m 613.384,229.864 h 1.782 v 20.794 h -1.782 z"
       style="fill:#f7f2ee;fill-opacity:1;fill-rule:nonzero;stroke:none"
       transform="matrix(1.3333333,0,0,-1.3333333,0,793.70133)"
       clip-path="url(#clipPath26)" />
    <path
       id="path27"
       d="m 0,0 h -1.782 v -20.794 h 13.427 v 1.515 H 0 Z"
       style="fill:#f7f2ee;fill-opacity:1;fill-rule:nonzero;stroke:none"
       transform="matrix(1.3333333,0,0,-1.3333333,828.53853,459.49053)"
       clip-path="url(#clipPath28)" />
    <path
       id="path29"
       d="m 0,0 c -0.674,-1.347 -1.683,-2.387 -3.03,-3.119 -1.347,-0.733 -2.981,-1.099 -4.902,-1.099 h -3.773 v 17.883 h 3.743 c 1.981,0 3.634,-0.352 4.962,-1.055 1.326,-0.703 2.326,-1.718 3,-3.045 C 0.673,8.238 1.01,6.644 1.01,4.783 1.01,2.941 0.673,1.346 0,0 m 1.634,10.308 c -0.813,1.545 -2.011,2.733 -3.595,3.565 -1.585,0.831 -3.505,1.247 -5.763,1.247 h -5.762 V -5.674 h 0.772 1.009 3.892 c 2.218,0 4.129,0.436 5.734,1.307 1.603,0.872 2.826,2.104 3.668,3.699 0.842,1.593 1.262,3.42 1.262,5.48 0,2.119 -0.405,3.951 -1.217,5.496"
       style="fill:#f7f2ee;fill-opacity:1;fill-rule:nonzero;stroke:none"
       transform="matrix(1.3333333,0,0,-1.3333333,866.24533,479.65093)"
       clip-path="url(#clipPath30)" />
    <path
       id="path31"
       d="M 0,0 C 6.558,0 11.875,5.317 11.875,11.876 11.875,18.434 6.558,23.75 0,23.75 -6.559,23.75 -11.875,18.434 -11.875,11.876 -11.875,5.317 -6.559,0 0,0"
       style="fill:#f7f2ee;fill-opacity:1;fill-rule:nonzero;stroke:none"
       transform="matrix(1.3333333,0,0,-1.3333333,673.52867,317.0664)"
       clip-path="url(#clipPath32)" />
    <path
       id="path33"
       d="m 506.422,281.092 h -2.552 v 48.519 h 2.552 z m -29.147,63.62 -29.535,-36.516 v 36.515 h -55.742 l -29.536,-36.515 v 73.031 H 306.72 L 277.184,344.711 V 229.478 h 55.742 l 29.536,36.515 v -36.515 h 55.742 l 29.535,36.515 v -36.515 h 55.743 l 29.535,36.516 v 78.718 z"
       style="fill:#f7f2ee;fill-opacity:1;fill-rule:nonzero;stroke:none"
       transform="matrix(1.3333333,0,0,-1.3333333,0,793.70133)"
       clip-path="url(#clipPath34)" />
    <path
       id="path35"
       d="m 0,0 v -78.717 h 55.742 l 29.536,36.515 V -4.119 H 36.755 v 2.552 H 85.278 V 36.516 H 29.536 Z"
       style="fill:#f7f2ee;fill-opacity:1;fill-rule:nonzero;stroke:none"
       transform="matrix(1.3333333,0,0,-1.3333333,252.4724,382.7736)"
       clip-path="url(#clipPath36)" />
    <path
       id="path37"
       d="M 0,0 C 6.558,0 11.875,5.317 11.875,11.876 11.875,18.434 6.558,23.75 0,23.75 -6.559,23.75 -11.875,18.434 -11.875,11.876 -11.875,5.317 -6.559,0 0,0"
       style="fill:#f7f2ee;fill-opacity:1;fill-rule:nonzero;stroke:none"
       transform="matrix(1.3333333,0,0,-1.3333333,559.82507,317.0664)"
       clip-path="url(#clipPath38)" />
    <path
       id="path39"
       d="m 0,0 c -6.558,0 -11.875,-5.317 -11.875,-11.875 0,-6.559 5.317,-11.875 11.875,-11.875 6.558,0 11.875,5.316 11.875,11.875 C 11.875,-5.317 6.558,0 0,0 m 0,-2.082 c 5.4,0 9.793,-4.393 9.793,-9.793 0,-5.4 -4.393,-9.793 -9.793,-9.793 -5.4,0 -9.793,4.393 -9.793,9.793 0,5.4 4.393,9.793 9.793,9.793"
       style="fill:#f7f2ee;fill-opacity:1;fill-rule:nonzero;stroke:none"
       transform="matrix(1.3333333,0,0,-1.3333333,328.0488,285.39933)"
       clip-path="url(#clipPath40)" />
  </g>
</svg>
